<svg width="10" height="10" viewBox="0 0 10 10" fill="none" xmlns="http://www.w3.org/2000/svg">
<path d="M6.43248 4.99239L9.70268 1.7172C9.88622 1.52564 9.98748 1.26968 9.98475 1.00421C9.98202 0.738742 9.87551 0.484918 9.68806 0.297191C9.50062 0.109465 9.24719 0.00279052 8.98212 5.39675e-05C8.71705 -0.00268258 8.46147 0.0987487 8.2702 0.282565L5 3.55773L1.7298 0.282565C1.53853 0.0987487 1.28295 -0.00268258 1.01788 5.39675e-05C0.752815 0.00279052 0.499376 0.109465 0.311935 0.297191C0.124494 0.484918 0.0179818 0.738742 0.0152494 1.00421C0.012517 1.26968 0.113783 1.52564 0.29732 1.7172L3.56752 4.99239L0.29732 8.26758C0.203078 8.36168 0.12831 8.47346 0.0772902 8.59656C0.0262705 8.71965 0 8.85162 0 8.9849C0 9.11818 0.0262705 9.25015 0.0772902 9.37324C0.12831 9.49633 0.203078 9.60812 0.29732 9.70222C0.391275 9.7966 0.5029 9.87151 0.625807 9.9226C0.748713 9.9737 0.880484 10 1.01356 10C1.14663 10 1.2784 9.9737 1.40131 9.9226C1.52422 9.87151 1.63584 9.7966 1.7298 9.70222L5 6.42705L8.2702 9.70222C8.36416 9.7966 8.47578 9.87151 8.59869 9.9226C8.72159 9.9737 8.85337 10 8.98644 10C9.11952 10 9.25129 9.9737 9.37419 9.9226C9.4971 9.87151 9.60873 9.7966 9.70268 9.70222C9.79692 9.60812 9.87169 9.49633 9.92271 9.37324C9.97373 9.25015 10 9.11818 10 8.9849C10 8.85162 9.97373 8.71965 9.92271 8.59656C9.87169 8.47346 9.79692 8.36168 9.70268 8.26758L6.43248 4.99239Z" fill="#F24822"/>
</svg>
